<?xml version="1.0" encoding="UTF-8"?>
<svg enable-background="new 0 0 360 360" version="1.1" viewBox="0 0 360 360" xml:space="preserve" xmlns="http://www.w3.org/2000/svg">
<path d="m11 361h-9.9969c-0.001027-119.95-0.001027-239.9-0.001027-359.92h359.85v359.92c-3.9003 0-7.8985 0-12.323-0.45972-1.5394-11.88-2.4603-23.323-3.8062-34.716-2.7636-23.393-12.802-42.145-34.689-53.108-1.9328-0.96817-3.7198-2.271-5.7155-3.0634-21.006-8.3397-42.04-16.607-63.3-25.142-5.9377-2.8162-9.3981-7.6078-10.79-13.273-1.9524-7.946-2.8354-16.155-4.1139-24.61 0.5396-1.5641 0.79781-2.9257 1.529-3.9494 6.9341-9.7086 12.607-19.952 14.498-31.965 0.14834-0.94254 1.5335-2.3233 2.4462-2.4088 5.5057-0.51598 8.7703-3.9953 10.99-8.4165 4.8364-9.634 6.0004-20.031 4.8935-30.604-0.68478-6.5421-2.0495-7.3084-8.7832-7.5963 1.9515-12.921 4.3527-25.356 5.6017-37.907 1.3122-13.185-1.0961-25.729-11.539-35.146-6.2699-5.6538-12.684-11.309-19.712-15.932-26.051-17.136-54.335-19.594-83.654-10.633-13.734 4.1976-24.948 11.975-28.159 27.471-0.15523 0.74914-0.6945 1.5039-1.2442 2.0733-8.047 8.3361-10.846 18.793-10.543 29.805 0.37456 13.602 1.964 27.171 2.6058 40.697-3.8592-0.31658-6.4178 0.85557-7.0004 4.5201-1.8482 11.625-0.75923 23.004 4.7331 33.451 1.6965 3.2271 5.2743 6.6423 8.63 7.516 4.0125 1.0447 4.8998 3.0138 5.5861 6.2432 2.4872 11.703 7.1158 22.479 14.052 32.269 1.004 1.4171 1.4043 3.2619 2.0036 5.3454-0.61038 12.347-2.9267 23.583-12.44 32.343-6.1534 2.16-11.93 4.2451-17.722 6.2835-19.906 7.0049-39.758 14.091-57.842 25.302-14.19 8.7972-24.672 20.327-27.359 37.33-2.5362 16.044-4.4798 32.182-6.684 48.279z" fill="#fff"/>
<path d="m241.25 244.76c21.027 8.2874 42.061 16.555 63.067 24.894 1.9957 0.79233 3.7827 2.0952 5.7155 3.0634 21.887 10.964 31.925 29.716 34.689 53.108 1.3459 11.393 2.2668 22.836 3.3296 34.716-112.07 0.45972-224.09 0.45972-336.58 0.45972 1.7356-16.097 3.6792-32.234 6.2154-48.279 2.6878-17.003 13.169-28.533 27.359-37.33 18.084-11.211 37.936-18.298 57.842-25.302 5.7926-2.0384 11.569-4.1235 17.702-5.8673 0.6862 1.7556 0.70578 3.3732 1.409 4.5986 6.4016 11.155 15.469 19.321 27.454 24.191 15.785 6.414 32.178 6.2835 48.516 3.6902 16.138-2.5616 29.058-10.784 37.883-24.916 1.5571-2.4936 3.5878-4.6916 5.3998-7.0261z" fill="#707171"/>
<path d="m251.63 122.12c6.7906-0.14674 8.1553 0.61955 8.8401 7.1616 1.1068 10.574-0.057099 20.97-4.8935 30.604-2.2195 4.4212-5.4841 7.9005-10.99 8.4165-0.91264 0.085526-2.2978 1.4663-2.4462 2.4088-1.891 12.013-7.5637 22.257-14.498 31.965-0.73119 1.0238-0.9894 2.3853-1.879 3.9802-3.705 3.3794-7.0024 6.3641-10.29 9.3592-6.7865 6.1821-14.084 11.51-23.088 14.063-17.846 5.0587-33.675 0.73816-48.06-10.297-3.7596-2.8839-7.4657-5.8378-11.196-8.7595-0.67966-1.6469-1.0799-3.4917-2.084-4.9087-6.9366-9.7904-11.565-20.566-14.052-32.269-0.68632-3.2294-1.5736-5.1984-5.5861-6.2432-3.3557-0.87373-6.9335-4.2889-8.63-7.516-5.4924-10.448-6.5814-21.827-4.7331-33.451 0.58261-3.6645 3.1412-4.8367 7.1971-4.2784 2.2102 5.1203 4.3529 9.5403 9.3399 12.979 0.20278-2.0359 0.49012-3.1622 0.3959-4.2555-0.69817-8.102 1.3231-15.613 3.7204-23.326 2.3828-7.6662 2.8257-15.921 4.322-23.88 2.5293-13.454 13.666-18.603 26.306-16.201 9.8423 1.8706 19.546 3.062 29.597 1.5374 6.5212-0.98914 13.23-1.1777 19.839-1.027 6.5985 0.15038 13.173 1.2168 19.766 1.7974 8.2396 0.72558 18.876 9.8283 18.635 19.136-0.13617 5.2564 0.12328 10.734 1.4745 15.772 2.4491 9.13 5.5891 18.042 4.4277 27.725-0.084213 0.70209 0.41972 1.4747 0.87111 2.9236 5.4984-3.2788 6.3298-8.5084 7.6953-13.416z" fill="#A2A3A3"/>
<path d="m251.69 121.69c-1.4225 5.3422-2.2539 10.572-7.7522 13.851-0.45139-1.4489-0.95532-2.2215-0.87111-2.9236 1.1614-9.6825-1.9786-18.595-4.4277-27.725-1.3513-5.0375-1.6107-10.515-1.4745-15.772 0.2411-9.3076-10.396-18.41-18.635-19.136-6.5925-0.58055-13.167-1.647-19.766-1.7974-6.609-0.15061-13.318 0.037902-19.839 1.027-10.051 1.5245-19.755 0.3332-29.597-1.5374-12.64-2.4024-23.776 2.7473-26.306 16.201-1.4962 7.9588-1.9391 16.214-4.322 23.88-2.3973 7.7127-4.4186 15.224-3.7204 23.326 0.094223 1.0934-0.19312 2.2196-0.3959 4.2555-4.987-3.4387-7.1297-7.8588-8.9171-12.922-1.2612-13.825-2.8506-27.394-3.2252-40.996-0.30322-11.012 2.4957-21.469 10.543-29.805 0.54969-0.56944 1.089-1.3242 1.2442-2.0733 3.2108-15.496 14.424-23.273 28.159-27.471 29.319-8.9607 57.603-6.5022 83.654 10.633 7.028 4.6228 13.442 10.278 19.712 15.932 10.443 9.417 12.851 21.961 11.539 35.146-1.249 12.55-3.6502 24.986-5.6017 37.907z" fill="#737272"/>
<path d="m133.05 211.46c3.8111 2.485 7.5171 5.4389 11.277 8.3228 14.385 11.035 30.214 15.355 48.06 10.297 9.0047-2.5526 16.302-7.8808 23.088-14.063 3.2879-2.9951 6.5852-5.9798 10.228-9 1.6905 8.0656 2.5735 16.274 4.5259 24.22 1.392 5.665 4.8524 10.457 10.79 13.273-1.5793 2.5821-3.61 4.78-5.1671 7.2737-8.8245 14.132-21.745 22.355-37.883 24.916-16.338 2.5934-32.731 2.7238-48.516-3.6902-11.985-4.8701-21.053-13.036-27.454-24.191-0.70319-1.2254-0.72277-2.843-1.0392-4.6949 9.1634-9.0799 11.48-20.317 12.09-32.663z" fill="#949594"/>
</svg>
